<?xml version="1.0" encoding="UTF-8" standalone="no"?>
<!DOCTYPE svg PUBLIC "-//W3C//DTD SVG 1.1//EN"
 "http://www.w3.org/Graphics/SVG/1.1/DTD/svg11.dtd">
<!-- Generated by graphviz version 2.43.0 (0)
 -->
<!-- Title: JMAP Pages: 1 -->
<svg width="338pt" height="332pt"
 viewBox="0.00 0.00 338.00 332.00" xmlns="http://www.w3.org/2000/svg" xmlns:xlink="http://www.w3.org/1999/xlink">
<g id="graph0" class="graph" transform="scale(1 1) rotate(0) translate(4 328)">
<title>JMAP</title>
<polygon fill="white" stroke="transparent" points="-4,4 -4,-328 334,-328 334,4 -4,4"/>
<!-- 2010 -->
<g id="node1" class="node">
<title>2010</title>
<text text-anchor="middle" x="27" y="-302.3" font-family="Courier,monospace" font-size="14.00">2010</text>
</g>
<!-- 2019 -->
<g id="node2" class="node">
<title>2019</title>
<text text-anchor="middle" x="27" y="-230.3" font-family="Courier,monospace" font-size="14.00">2019</text>
</g>
<!-- 2010&#45;&gt;2019 -->
<g id="edge1" class="edge">
<title>2010&#45;&gt;2019</title>
<path fill="none" stroke="black" d="M27,-287.7C27,-276.85 27,-262.92 27,-252.1"/>
</g>
<!-- 2021 -->
<g id="node3" class="node">
<title>2021</title>
<text text-anchor="middle" x="27" y="-158.3" font-family="Courier,monospace" font-size="14.00">2021</text>
</g>
<!-- 2019&#45;&gt;2021 -->
<g id="edge2" class="edge">
<title>2019&#45;&gt;2021</title>
<path fill="none" stroke="black" d="M27,-215.7C27,-204.85 27,-190.92 27,-180.1"/>
</g>
<!-- 2022 -->
<g id="node4" class="node">
<title>2022</title>
<text text-anchor="middle" x="27" y="-86.3" font-family="Courier,monospace" font-size="14.00">2022</text>
</g>
<!-- 2021&#45;&gt;2022 -->
<g id="edge3" class="edge">
<title>2021&#45;&gt;2022</title>
<path fill="none" stroke="black" d="M27,-143.7C27,-132.85 27,-118.92 27,-108.1"/>
</g>
<!-- 2023 -->
<g id="node5" class="node">
<title>2023</title>
<text text-anchor="middle" x="27" y="-14.3" font-family="Courier,monospace" font-size="14.00">2023</text>
</g>
<!-- 2022&#45;&gt;2023 -->
<g id="edge4" class="edge">
<title>2022&#45;&gt;2023</title>
<path fill="none" stroke="black" d="M27,-71.7C27,-60.85 27,-46.92 27,-36.1"/>
</g>
<!-- RFC5788 -->
<g id="node6" class="node">
<title>RFC5788</title>
<g id="a_node6"><a xlink:href="http://tools.ietf.org/html/rfc5788" xlink:title="RFC5788: IMAP4 Keyword Registry" target="_blank">
<path fill="yellow" stroke="black" d="M134,-324C134,-324 84,-324 84,-324 78,-324 72,-318 72,-312 72,-312 72,-300 72,-300 72,-294 78,-288 84,-288 84,-288 134,-288 134,-288 140,-288 146,-294 146,-300 146,-300 146,-312 146,-312 146,-318 140,-324 134,-324"/>
<text text-anchor="middle" x="109" y="-302.3" font-family="Courier,monospace" font-size="14.00">RFC5788</text>
</a>
</g>
</g>
<!-- RFC8620 -->
<g id="node7" class="node">
<title>RFC8620</title>
<g id="a_node7"><a xlink:href="http://tools.ietf.org/html/rfc8620" xlink:title="RFC8620: The JSON Meta Application Protocol (JMAP)" target="_blank">
<path fill="yellow" stroke="black" d="M226,-252C226,-252 176,-252 176,-252 170,-252 164,-246 164,-240 164,-240 164,-228 164,-228 164,-222 170,-216 176,-216 176,-216 226,-216 226,-216 232,-216 238,-222 238,-228 238,-228 238,-240 238,-240 238,-246 232,-252 226,-252"/>
<text text-anchor="middle" x="201" y="-230.3" font-family="Courier,monospace" font-size="14.00">RFC8620</text>
</a>
</g>
</g>
<!-- RFC8621 -->
<g id="node8" class="node">
<title>RFC8621</title>
<g id="a_node8"><a xlink:href="http://tools.ietf.org/html/rfc8621" xlink:title="RFC8621: The JSON Meta Application Protocol (JMAP) for Mail" target="_blank">
<path fill="yellow" stroke="black" d="M134,-252C134,-252 84,-252 84,-252 78,-252 72,-246 72,-240 72,-240 72,-228 72,-228 72,-222 78,-216 84,-216 84,-216 134,-216 134,-216 140,-216 146,-222 146,-228 146,-228 146,-240 146,-240 146,-246 140,-252 134,-252"/>
<text text-anchor="middle" x="109" y="-230.3" font-family="Courier,monospace" font-size="14.00">RFC8621</text>
</a>
</g>
</g>
<!-- RFC8621&#45;&gt;RFC5788 -->
<g id="edge5" class="edge">
<title>RFC8621&#45;&gt;RFC5788</title>
<path fill="none" stroke="black" d="M109,-252.1C109,-259.79 109,-269.05 109,-277.67"/>
<polygon fill="black" stroke="black" points="105.5,-277.7 109,-287.7 112.5,-277.7 105.5,-277.7"/>
</g>
<!-- RFC9007 -->
<g id="node9" class="node">
<title>RFC9007</title>
<g id="a_node9"><a xlink:href="http://tools.ietf.org/html/rfc9007" xlink:title="RFC9007: Handling Message Disposition Notification with the JSON Meta Application Protocol (JMAP)" target="_blank">
<path fill="yellow" stroke="black" d="M291,-180C291,-180 241,-180 241,-180 235,-180 229,-174 229,-168 229,-168 229,-156 229,-156 229,-150 235,-144 241,-144 241,-144 291,-144 291,-144 297,-144 303,-150 303,-156 303,-156 303,-168 303,-168 303,-174 297,-180 291,-180"/>
<text text-anchor="middle" x="266" y="-158.3" font-family="Courier,monospace" font-size="14.00">RFC9007</text>
</a>
</g>
</g>
<!-- RFC9219 -->
<g id="node10" class="node">
<title>RFC9219</title>
<g id="a_node10"><a xlink:href="http://tools.ietf.org/html/rfc9219" xlink:title="RFC9219: S/MIME Signature Verification Extension to the JSON Meta Application Protocol (JMAP)" target="_blank">
<path fill="yellow" stroke="black" d="M291,-108C291,-108 241,-108 241,-108 235,-108 229,-102 229,-96 229,-96 229,-84 229,-84 229,-78 235,-72 241,-72 241,-72 291,-72 291,-72 297,-72 303,-78 303,-84 303,-84 303,-96 303,-96 303,-102 297,-108 291,-108"/>
<text text-anchor="middle" x="266" y="-86.3" font-family="Courier,monospace" font-size="14.00">RFC9219</text>
</a>
</g>
</g>
<!-- RFC9404 -->
<g id="node11" class="node">
<title>RFC9404</title>
<g id="a_node11"><a xlink:href="http://tools.ietf.org/html/rfc9404" xlink:title="RFC9404: JSON Meta Application Protocol (JMAP) Blob Management Extension" target="_blank">
<path fill="yellow" stroke="black" d="M226,-36C226,-36 176,-36 176,-36 170,-36 164,-30 164,-24 164,-24 164,-12 164,-12 164,-6 170,0 176,0 176,0 226,0 226,0 232,0 238,-6 238,-12 238,-12 238,-24 238,-24 238,-30 232,-36 226,-36"/>
<text text-anchor="middle" x="201" y="-14.3" font-family="Courier,monospace" font-size="14.00">RFC9404</text>
</a>
</g>
</g>
<!-- RFC9404&#45;&gt;RFC8620 -->
<g id="edge6" class="edge">
<title>RFC9404&#45;&gt;RFC8620</title>
<path fill="none" stroke="black" d="M201,-36.23C201,-73.32 201,-160.98 201,-205.71"/>
<polygon fill="black" stroke="black" points="197.5,-205.85 201,-215.85 204.5,-205.85 197.5,-205.85"/>
</g>
<!-- RFC9425 -->
<g id="node12" class="node">
<title>RFC9425</title>
<g id="a_node12"><a xlink:href="http://tools.ietf.org/html/rfc9425" xlink:title="RFC9425: JSON Meta Application Protocol (JMAP) for Quotas" target="_blank">
<path fill="yellow" stroke="black" d="M318,-36C318,-36 268,-36 268,-36 262,-36 256,-30 256,-24 256,-24 256,-12 256,-12 256,-6 262,0 268,0 268,0 318,0 318,0 324,0 330,-6 330,-12 330,-12 330,-24 330,-24 330,-30 324,-36 318,-36"/>
<text text-anchor="middle" x="293" y="-14.3" font-family="Courier,monospace" font-size="14.00">RFC9425</text>
</a>
</g>
</g>
</g>
</svg>
